<mxfile host="app.diagrams.net" agent="Mozilla/5.0 (Windows NT 10.0; Win64; x64) AppleWebKit/537.36 (KHTML, like Gecko) Chrome/138.0.0.0 Safari/537.36 Edg/138.0.0.0" version="28.0.7">
  <diagram name="Page-1" id="k_VfRCG14RglI3bANBC8">
    <mxGraphModel dx="3393" dy="1285" grid="1" gridSize="10" guides="1" tooltips="1" connect="1" arrows="1" fold="1" page="1" pageScale="1" pageWidth="850" pageHeight="1100" math="0" shadow="0">
      <root>
        <mxCell id="0" />
        <mxCell id="1" parent="0" />
        <mxCell id="OVC_6d7pGgO2BO25d6ff-11" value="" style="whiteSpace=wrap;html=1;aspect=fixed;" parent="1" vertex="1">
          <mxGeometry x="40" y="90" width="710" height="710" as="geometry" />
        </mxCell>
        <mxCell id="OVC_6d7pGgO2BO25d6ff-1" value="eSNAP Endpoint" style="rounded=0;whiteSpace=wrap;html=1;" parent="1" vertex="1">
          <mxGeometry x="320" y="190" width="100" height="40" as="geometry" />
        </mxCell>
        <mxCell id="OVC_6d7pGgO2BO25d6ff-4" style="edgeStyle=orthogonalEdgeStyle;rounded=0;orthogonalLoop=1;jettySize=auto;html=1;entryX=0.5;entryY=1;entryDx=0;entryDy=0;" parent="1" source="OVC_6d7pGgO2BO25d6ff-3" target="OVC_6d7pGgO2BO25d6ff-1" edge="1">
          <mxGeometry relative="1" as="geometry" />
        </mxCell>
        <mxCell id="OVC_6d7pGgO2BO25d6ff-3" value="&lt;div&gt;&amp;nbsp;&lt;/div&gt;&lt;div&gt;Scheduler Executor&lt;/div&gt;every 10 secs&lt;div&gt;&lt;br&gt;&lt;/div&gt;" style="rounded=0;whiteSpace=wrap;html=1;" parent="1" vertex="1">
          <mxGeometry x="285" y="400" width="170" height="70" as="geometry" />
        </mxCell>
        <mxCell id="OVC_6d7pGgO2BO25d6ff-13" style="edgeStyle=orthogonalEdgeStyle;rounded=0;orthogonalLoop=1;jettySize=auto;html=1;entryX=1;entryY=0.5;entryDx=0;entryDy=0;exitX=0.5;exitY=0;exitDx=0;exitDy=0;" parent="1" source="OVC_6d7pGgO2BO25d6ff-5" target="OVC_6d7pGgO2BO25d6ff-3" edge="1">
          <mxGeometry relative="1" as="geometry" />
        </mxCell>
        <mxCell id="OVC_6d7pGgO2BO25d6ff-16" value="Pull Jobs" style="edgeLabel;html=1;align=center;verticalAlign=middle;resizable=0;points=[];" parent="OVC_6d7pGgO2BO25d6ff-13" vertex="1" connectable="0">
          <mxGeometry x="-0.2551" y="4" relative="1" as="geometry">
            <mxPoint x="-1" as="offset" />
          </mxGeometry>
        </mxCell>
        <mxCell id="iRJmOy6jyRxYtkJT8zTa-4" style="edgeStyle=orthogonalEdgeStyle;rounded=0;orthogonalLoop=1;jettySize=auto;html=1;exitX=0.5;exitY=1;exitDx=0;exitDy=0;" edge="1" parent="1" source="OVC_6d7pGgO2BO25d6ff-5" target="OVC_6d7pGgO2BO25d6ff-7">
          <mxGeometry relative="1" as="geometry">
            <mxPoint x="1045.1111111111113" y="410" as="sourcePoint" />
            <Array as="points">
              <mxPoint x="1045" y="630" />
            </Array>
          </mxGeometry>
        </mxCell>
        <mxCell id="iRJmOy6jyRxYtkJT8zTa-5" value="Modify Jobs" style="edgeLabel;html=1;align=center;verticalAlign=middle;resizable=0;points=[];" vertex="1" connectable="0" parent="iRJmOy6jyRxYtkJT8zTa-4">
          <mxGeometry x="0.2018" y="3" relative="1" as="geometry">
            <mxPoint as="offset" />
          </mxGeometry>
        </mxCell>
        <mxCell id="OVC_6d7pGgO2BO25d6ff-5" value="DynamoDB" style="rounded=0;whiteSpace=wrap;html=1;" parent="1" vertex="1">
          <mxGeometry x="960" y="420" width="170" height="100" as="geometry" />
        </mxCell>
        <mxCell id="OVC_6d7pGgO2BO25d6ff-7" value="Scheduler Configuration" style="rounded=0;whiteSpace=wrap;html=1;" parent="1" vertex="1">
          <mxGeometry x="290" y="580" width="170" height="90" as="geometry" />
        </mxCell>
        <mxCell id="OVC_6d7pGgO2BO25d6ff-8" value="Scheduler Configuration" style="rounded=0;whiteSpace=wrap;html=1;" parent="1" vertex="1">
          <mxGeometry x="870" y="1120" width="170" height="70" as="geometry" />
        </mxCell>
        <mxCell id="iRJmOy6jyRxYtkJT8zTa-11" style="edgeStyle=orthogonalEdgeStyle;rounded=0;orthogonalLoop=1;jettySize=auto;html=1;entryX=0;entryY=0.5;entryDx=0;entryDy=0;" edge="1" parent="1" source="iRJmOy6jyRxYtkJT8zTa-8" target="OVC_6d7pGgO2BO25d6ff-7">
          <mxGeometry relative="1" as="geometry" />
        </mxCell>
        <mxCell id="iRJmOy6jyRxYtkJT8zTa-8" value="User&amp;nbsp;&lt;div&gt;&lt;br&gt;&lt;/div&gt;&lt;div&gt;&lt;br&gt;&lt;/div&gt;&lt;div&gt;&lt;br&gt;&lt;/div&gt;&lt;div&gt;&lt;br&gt;&lt;/div&gt;&lt;div&gt;&lt;br&gt;&lt;/div&gt;&lt;div&gt;&lt;br&gt;&lt;/div&gt;&lt;div&gt;&lt;br&gt;&lt;/div&gt;" style="rounded=0;whiteSpace=wrap;html=1;" vertex="1" parent="1">
          <mxGeometry x="-300" y="460" width="230" height="200" as="geometry" />
        </mxCell>
        <mxCell id="iRJmOy6jyRxYtkJT8zTa-10" value="Load Dashboard" style="rounded=0;whiteSpace=wrap;html=1;" vertex="1" parent="1">
          <mxGeometry x="-270" y="540" width="170" height="70" as="geometry" />
        </mxCell>
        <mxCell id="iRJmOy6jyRxYtkJT8zTa-12" value="&lt;font style=&quot;font-size: 18px;&quot;&gt;&lt;b&gt;ECS&lt;/b&gt;&lt;/font&gt;" style="text;html=1;align=center;verticalAlign=middle;whiteSpace=wrap;rounded=0;" vertex="1" parent="1">
          <mxGeometry x="60" y="120" width="60" height="30" as="geometry" />
        </mxCell>
      </root>
    </mxGraphModel>
  </diagram>
</mxfile>
